<svg id="Layer_1" data-name="Layer 1" xmlns="http://www.w3.org/2000/svg" viewBox="0 0 1288.39 702.1"><defs><style>.cls-1{fill:#3d5b58;}</style></defs><path class="cls-1" d="M403.26,574.86c0-6.63,4.41-11.77,10.67-11.77,3.61,0,6.81,1.48,8.48,4.4v-3.94h3.52v22.58h-3.52v-3.94c-1.67,3-4.87,4.4-8.48,4.4C407.67,586.59,403.26,581.4,403.26,574.86Zm19.15,0c0-4.73-3.39-8.34-7.7-8.34-4.49,0-7.83,3.52-7.83,8.34s3.34,8.3,7.83,8.3C419,583.16,422.41,579.59,422.41,574.86Z"/><path class="cls-1" d="M430.87,583.16l1.44-2.88a10.27,10.27,0,0,0,7.37,3c3.11,0,5.66-1.44,5.66-3.47,0-2.37-2.74-3-5.47-3.71-4.18-1.07-8-2.23-8-6.54,0-4.08,4.27-6.44,8.07-6.44a12.73,12.73,0,0,1,7.69,2.41l-1.39,2.87a10.62,10.62,0,0,0-6.25-1.94c-2.32,0-4.5,1.29-4.5,3.05,0,2.23,2.5,2.74,5.14,3.3,4.08.92,8.3,2.45,8.3,6.9,0,4.78-4.87,6.91-9.27,6.91A12.18,12.18,0,0,1,430.87,583.16Z"/><path class="cls-1" d="M453.11,574.86a11.44,11.44,0,0,1,11.36-11.77c6,0,10.8,5.19,10.8,11.63a13.21,13.21,0,0,1-.1,1.39h-18.4a8.09,8.09,0,0,0,8.21,7.33,11.08,11.08,0,0,0,6.95-2.41l1.53,2.59a13.81,13.81,0,0,1-8.53,3A11.44,11.44,0,0,1,453.11,574.86Zm18.68-1.43a7.59,7.59,0,0,0-7.51-7.19c-3.84,0-7,3-7.51,7.19Z"/><path class="cls-1" d="M479.28,583.16l1.44-2.88a10.27,10.27,0,0,0,7.37,3c3.11,0,5.66-1.44,5.66-3.47,0-2.37-2.74-3-5.47-3.71-4.17-1.07-8-2.23-8-6.54,0-4.08,4.26-6.44,8.06-6.44a12.71,12.71,0,0,1,7.69,2.41l-1.39,2.87a10.62,10.62,0,0,0-6.25-1.94c-2.32,0-4.5,1.29-4.5,3.05,0,2.23,2.5,2.74,5.15,3.3,4.07.92,8.29,2.45,8.29,6.9,0,4.78-4.86,6.91-9.27,6.91A12.18,12.18,0,0,1,479.28,583.16Z"/><path class="cls-1" d="M501.52,574.86a11.87,11.87,0,1,1,11.87,11.73A11.72,11.72,0,0,1,501.52,574.86Zm20.12,0a8.25,8.25,0,1,0-8.25,8.3A8.12,8.12,0,0,0,521.64,574.86Z"/><path class="cls-1" d="M530.48,563.55H534v4.78c1.3-3,4.22-5.24,8.71-5.24v3.84c-5.28,0-8.71,3-8.71,8.49v10.71h-3.52Z"/><path class="cls-1" d="M550.31,553.77h3.84l-4.35,6.17h-3.25Zm-3.3,9.78h3.53v22.58H547Z"/><path class="cls-1" d="M555.77,574.86c0-6.63,4.4-11.77,10.66-11.77,3.62,0,6.81,1.48,8.48,4.4v-3.94h3.53v22.58h-3.53v-3.94c-1.67,3-4.86,4.4-8.48,4.4C560.17,586.59,555.77,581.4,555.77,574.86Zm19.14,0c0-4.73-3.38-8.34-7.69-8.34-4.5,0-7.83,3.52-7.83,8.34s3.33,8.3,7.83,8.3C571.53,583.16,574.91,579.59,574.91,574.86Z"/><path class="cls-1" d="M594,574.86c0-6.63,4.4-11.77,10.66-11.77,3.61,0,6.81,1.48,8.48,4.4v-3.94h3.53v22.58h-3.53v-3.94c-1.67,3-4.87,4.4-8.48,4.4C598.39,586.59,594,581.4,594,574.86Zm19.14,0c0-4.73-3.38-8.34-7.69-8.34-4.5,0-7.84,3.52-7.84,8.34s3.34,8.3,7.84,8.3C609.75,583.16,613.13,579.59,613.13,574.86Z"/><path class="cls-1" d="M622.8,563.55h3.53v3.9a8.27,8.27,0,0,1,7.23-4.36c3.61,0,6.16,1.57,7.23,4.77a8.91,8.91,0,0,1,7.79-4.77c5.42,0,8.29,3.15,8.29,9.36v13.68H653.3V572.91c0-3.84-1.34-6.39-5.47-6.39a6.2,6.2,0,0,0-6.21,6.44v13.17h-3.57V572.91c0-3.84-1.34-6.39-5.42-6.39a6.4,6.4,0,0,0-6.3,6.63v13H622.8Z"/><path class="cls-1" d="M666,582.19v3.94H662.6v-30.5h3.52v11.86c1.67-2.92,4.92-4.4,8.48-4.4,6.26,0,10.67,5.14,10.67,11.77s-4.41,11.73-10.67,11.73C670.94,586.59,667.65,585.15,666,582.19Zm15.67-7.33c0-4.82-3.34-8.34-7.83-8.34-4.31,0-7.7,3.61-7.7,8.34s3.39,8.3,7.7,8.3C678.31,583.16,681.65,579.64,681.65,574.86Z"/><path class="cls-1" d="M689.93,557.2a2.33,2.33,0,0,1,2.32-2.36,2.36,2.36,0,0,1,2.36,2.36,2.33,2.33,0,0,1-2.36,2.32A2.3,2.3,0,0,1,689.93,557.2Zm.56,6.35H694v22.58h-3.52Z"/><path class="cls-1" d="M699.24,574.86a11.45,11.45,0,0,1,11.36-11.77c6,0,10.8,5.19,10.8,11.63,0,.65-.09,1.35-.09,1.39H702.9a8.09,8.09,0,0,0,8.21,7.33,11.08,11.08,0,0,0,6.95-2.41l1.53,2.59a13.81,13.81,0,0,1-8.53,3A11.44,11.44,0,0,1,699.24,574.86Zm18.68-1.43a7.59,7.59,0,0,0-7.51-7.19c-3.84,0-7,3-7.51,7.19Z"/><path class="cls-1" d="M726.62,563.55h3.52v3.85a8.82,8.82,0,0,1,7.84-4.31c5.65,0,8.16,3.43,8.16,9.36v13.68h-3.53V572.91c0-4.17-1.53-6.39-5.61-6.39a6.77,6.77,0,0,0-6.86,6.91v12.7h-3.52Z"/><path class="cls-1" d="M753.12,579.36V566.47h-3.38v-2.92h3.38v-4.87l3.52-.64v5.51h7.7v2.92h-7.7v13c0,3.11,1.35,4,3.16,4a6.71,6.71,0,0,0,3.7-1.25l1.16,2.73a9.29,9.29,0,0,1-5.19,1.67C755.49,586.59,753.12,584.64,753.12,579.36Z"/><path class="cls-1" d="M767.85,574.86c0-6.63,4.41-11.77,10.66-11.77,3.62,0,6.82,1.48,8.48,4.4v-3.94h3.53v22.58H787v-3.94c-1.66,3-4.86,4.4-8.48,4.4C772.26,586.59,767.85,581.4,767.85,574.86Zm19.14,0c0-4.73-3.38-8.34-7.69-8.34-4.5,0-7.83,3.52-7.83,8.34s3.33,8.3,7.83,8.3C783.61,583.16,787,579.59,787,574.86Z"/><path class="cls-1" d="M796.67,555.63h3.52v30.5h-3.52Z"/><path class="cls-1" d="M402.5,632.8l1.44-2.88a10.27,10.27,0,0,0,7.36,3c3.11,0,5.66-1.44,5.66-3.48,0-2.36-2.74-3-5.47-3.71-4.17-1.06-8-2.22-8-6.53,0-4.08,4.26-6.45,8.06-6.45a12.83,12.83,0,0,1,7.7,2.41L417.89,618a10.66,10.66,0,0,0-6.26-2c-2.32,0-4.5,1.3-4.5,3.06,0,2.23,2.51,2.74,5.15,3.29,4.08.93,8.3,2.46,8.3,6.91,0,4.77-4.87,6.91-9.28,6.91A12.18,12.18,0,0,1,402.5,632.8Z"/><path class="cls-1" d="M424.73,624.5a11.87,11.87,0,1,1,11.87,11.73A11.73,11.73,0,0,1,424.73,624.5Zm20.12,0a8.25,8.25,0,1,0-8.25,8.3A8.12,8.12,0,0,0,444.85,624.5Z"/><path class="cls-1" d="M453.69,605.26h3.52v30.5h-3.52Z"/><path class="cls-1" d="M463,627.28V613.19h3.52v13.63c0,4.21,2,6,5.71,6,4.07,0,6.44-3.34,6.44-6.82V613.19h3.52v22.57h-3.38v-4a8.42,8.42,0,0,1-7.6,4.45C465.64,636.23,463,633.31,463,627.28Z"/><path class="cls-1" d="M487.42,624.5a11.72,11.72,0,0,1,11.86-11.78,12.07,12.07,0,0,1,8.07,3l-2.23,2.5a8.4,8.4,0,0,0-5.79-2.09,8.33,8.33,0,1,0,.09,16.65,9.12,9.12,0,0,0,6.44-2.55l2,2.64a12.44,12.44,0,0,1-8.62,3.34A11.68,11.68,0,0,1,487.42,624.5Z"/><path class="cls-1" d="M511.78,606.84a2.34,2.34,0,0,1,2.32-2.37,2.37,2.37,0,0,1,2.36,2.37,2.32,2.32,0,0,1-2.36,2.31A2.29,2.29,0,0,1,511.78,606.84Zm.56,6.35h3.52v22.57h-3.52Z"/><path class="cls-1" d="M521.09,624.5A11.87,11.87,0,1,1,533,636.23,11.73,11.73,0,0,1,521.09,624.5Zm20.12,0a8.25,8.25,0,1,0-8.25,8.3A8.12,8.12,0,0,0,541.21,624.5Z"/><path class="cls-1" d="M550.05,613.19h3.52V617a8.83,8.83,0,0,1,7.83-4.31c5.66,0,8.16,3.43,8.16,9.37v13.67H566V622.55c0-4.17-1.53-6.4-5.61-6.4a6.77,6.77,0,0,0-6.86,6.91v12.7h-3.52Z"/><path class="cls-1" d="M574.41,624.5a11.45,11.45,0,0,1,11.36-11.78c6,0,10.8,5.2,10.8,11.64,0,.65-.09,1.34-.09,1.39h-18.4a8.06,8.06,0,0,0,8.2,7.32,11.08,11.08,0,0,0,7-2.41l1.53,2.6a13.8,13.8,0,0,1-8.52,3C579.84,636.23,574.41,631.64,574.41,624.5Zm18.69-1.44a7.6,7.6,0,0,0-7.51-7.18c-3.85,0-7,3-7.51,7.18Z"/><path class="cls-1" d="M600.59,632.8l1.44-2.88a10.31,10.31,0,0,0,7.37,3c3.1,0,5.65-1.44,5.65-3.48,0-2.36-2.73-3-5.47-3.71-4.17-1.06-8-2.22-8-6.53,0-4.08,4.26-6.45,8.07-6.45a12.82,12.82,0,0,1,7.69,2.41L616,618a10.66,10.66,0,0,0-6.26-2c-2.32,0-4.49,1.3-4.49,3.06,0,2.23,2.5,2.74,5.14,3.29,4.08.93,8.3,2.46,8.3,6.91,0,4.77-4.87,6.91-9.27,6.91A12.18,12.18,0,0,1,600.59,632.8Z"/><path class="cls-1" d="M633.16,624.5c0-6.63,4.4-11.78,10.66-11.78,3.61,0,6.81,1.49,8.48,4.41v-3.94h3.52v22.57H652.3v-3.94c-1.67,3-4.87,4.41-8.48,4.41C637.56,636.23,633.16,631,633.16,624.5Zm19.14,0c0-4.73-3.38-8.35-7.69-8.35-4.5,0-7.84,3.53-7.84,8.35s3.34,8.3,7.84,8.3C648.92,632.8,652.3,629.23,652.3,624.5Z"/><path class="cls-1" d="M662,605.26h3.53v30.5H662Z"/><path class="cls-1" d="M672.86,629V616.11h-3.38v-2.92h3.38v-4.87l3.52-.65v5.52h7.7v2.92h-7.7v13c0,3.1,1.35,4,3.15,4a6.72,6.72,0,0,0,3.71-1.25l1.16,2.74a9.29,9.29,0,0,1-5.19,1.67C675.22,636.23,672.86,634.28,672.86,629Z"/><path class="cls-1" d="M687.59,624.5A11.44,11.44,0,0,1,699,612.72c6,0,10.8,5.2,10.8,11.64a13.49,13.49,0,0,1-.1,1.39h-18.4a8.07,8.07,0,0,0,8.21,7.32,11.12,11.12,0,0,0,6.95-2.41l1.53,2.6a13.81,13.81,0,0,1-8.53,3A11.44,11.44,0,0,1,687.59,624.5Zm18.68-1.44a7.59,7.59,0,0,0-7.51-7.18c-3.85,0-7,3-7.51,7.18Z"/><path class="cls-1" d="M715,613.19h3.52V618c1.3-3,4.22-5.24,8.72-5.24v3.85c-5.29,0-8.72,3-8.72,8.48v10.71H715Z"/><path class="cls-1" d="M731.51,613.19H735V617a8.83,8.83,0,0,1,7.83-4.31c5.66,0,8.16,3.43,8.16,9.37v13.67H747.5V622.55c0-4.17-1.53-6.4-5.61-6.4a6.77,6.77,0,0,0-6.86,6.91v12.7h-3.52Z"/><path class="cls-1" d="M755.87,624.5c0-6.63,4.41-11.78,10.67-11.78,3.61,0,6.81,1.49,8.48,4.41v-3.94h3.52v22.57H775v-3.94c-1.67,3-4.87,4.41-8.48,4.41C760.28,636.23,755.87,631,755.87,624.5Zm19.15,0c0-4.73-3.39-8.35-7.7-8.35-4.49,0-7.83,3.53-7.83,8.35s3.34,8.3,7.83,8.3C771.63,632.8,775,629.23,775,624.5Z"/><path class="cls-1" d="M785.9,629V616.11h-3.39v-2.92h3.39v-4.87l3.52-.65v5.52h7.69v2.92h-7.69v13c0,3.1,1.34,4,3.15,4a6.72,6.72,0,0,0,3.71-1.25l1.16,2.74a9.32,9.32,0,0,1-5.19,1.67C788.26,636.23,785.9,634.28,785.9,629Z"/><path class="cls-1" d="M801.27,606.84a2.35,2.35,0,0,1,2.32-2.37,2.38,2.38,0,0,1,2.37,2.37,2.33,2.33,0,0,1-2.37,2.31A2.29,2.29,0,0,1,801.27,606.84Zm.56,6.35h3.52v22.57h-3.52Z"/><path class="cls-1" d="M809,613.19h3.57l6.4,14.41a39.83,39.83,0,0,1,1.62,4.5,42.22,42.22,0,0,1,1.62-4.5l6.35-14.41h3.57l-9.92,22.71h-3.24Z"/><path class="cls-1" d="M834.21,624.5c0-6.63,4.41-11.78,10.66-11.78,3.62,0,6.82,1.49,8.49,4.41v-3.94h3.52v22.57h-3.52v-3.94c-1.67,3-4.87,4.41-8.49,4.41C838.62,636.23,834.21,631,834.21,624.5Zm19.15,0c0-4.73-3.39-8.35-7.7-8.35-4.49,0-7.83,3.53-7.83,8.35s3.34,8.3,7.83,8.3C850,632.8,853.36,629.23,853.36,624.5Z"/><path class="cls-1" d="M861.82,632.8l1.44-2.88a10.31,10.31,0,0,0,7.37,3c3.11,0,5.65-1.44,5.65-3.48,0-2.36-2.73-3-5.46-3.71-4.18-1.06-8-2.22-8-6.53,0-4.08,4.27-6.45,8.07-6.45a12.82,12.82,0,0,1,7.69,2.41L877.21,618a10.63,10.63,0,0,0-6.25-2c-2.32,0-4.5,1.3-4.5,3.06,0,2.23,2.5,2.74,5.14,3.29,4.08.93,8.3,2.46,8.3,6.91,0,4.77-4.87,6.91-9.27,6.91A12.18,12.18,0,0,1,861.82,632.8Z"/><polygon class="cls-1" points="817.74 577.41 817.74 573.77 831.08 573.77 831.08 564.34 849.94 564.34 849.94 573.77 861.42 573.77 861.42 564.34 878.43 564.34 878.43 568.01 865.09 568.01 865.09 577.41 846.26 577.41 846.26 568.01 834.75 568.01 834.75 577.41 817.74 577.41"/><path class="cls-1" d="M62.39,315.73V337a7.12,7.12,0,0,0,7.12,7.12h47.92a7.12,7.12,0,0,1,7.12,7.12V467a7.12,7.12,0,0,0,7.12,7.12h25.67a7.12,7.12,0,0,0,7.12-7.12V351.28a7.12,7.12,0,0,1,7.12-7.12h48A7.12,7.12,0,0,0,226.7,337V315.73a7.12,7.12,0,0,0-7.12-7.12H69.51A7.12,7.12,0,0,0,62.39,315.73Z"/><path class="cls-1" d="M292.19,431.71v-7.77a6.05,6.05,0,0,1,6.05-6.06h81.3a7.12,7.12,0,0,0,7.12-7.12V392.3a7.12,7.12,0,0,0-7.12-7.12H299.31a7.12,7.12,0,0,1-7.12-7.12V352a7.12,7.12,0,0,1,7.12-7.12h84.27a7.12,7.12,0,0,0,7.12-7.12v-22a7.12,7.12,0,0,0-7.12-7.12H259.4a7.12,7.12,0,0,0-7.12,7.12v62.33a7.12,7.12,0,0,1-7.12,7.12H232.87a7.12,7.12,0,0,0-7.12,7.12v18.46a7.12,7.12,0,0,0,7.12,7.12h12.29a7.12,7.12,0,0,1,7.12,7.12v42a7.12,7.12,0,0,0,7.12,7.12H385.24a7.12,7.12,0,0,0,7.12-7.12v-22.1a7.12,7.12,0,0,0-7.12-7.12h-87A6.05,6.05,0,0,1,292.19,431.71Z"/><path class="cls-1" d="M502.79,342.5a168.65,168.65,0,0,1,21.34,1.19,7.09,7.09,0,0,0,8-7v-23.9a7.15,7.15,0,0,0-5.89-7,128.55,128.55,0,0,0-22.54-1.93c-56.77,0-94.94,35-94.94,87.1,0,52.58,38.17,88,94.94,88a129.26,129.26,0,0,0,22.61-1.94,7.13,7.13,0,0,0,5.82-7V446a7.09,7.09,0,0,0-8-7.05,166.81,166.81,0,0,1-21.34,1.19c-31.75,0-53.13-19.79-53.13-49.25C449.66,361.9,471,342.5,502.79,342.5Z"/><path class="cls-1" d="M641.2,303.78c-56.78,0-95,35-95,87.1,0,52.58,38.17,88,95,88s94.94-35.4,94.94-88C736.14,338.78,698,303.78,641.2,303.78Zm.48,136.35c-31.76,0-53.14-19.79-53.14-49.25,0-29,21.38-48.38,53.14-48.38,30.72,0,52.18,19.87,52.18,48.38C693.86,420.34,672.87,440.13,641.68,440.13Z"/><path class="cls-1" d="M852.43,332.48V315.65a7.12,7.12,0,0,0-7.12-7.12h-25a7.12,7.12,0,0,0-7.12,7.12v16.82a10.66,10.66,0,0,1-1.47,5.4L738.12,463.3A7.13,7.13,0,0,0,744.26,474h30.41a7.13,7.13,0,0,0,6.29-3.79l8.18-15.4a7.12,7.12,0,0,1,6.28-3.78h74a7.11,7.11,0,0,1,6.23,3.68l8.61,15.6a7.12,7.12,0,0,0,6.24,3.69h30.65a7.12,7.12,0,0,0,6.14-10.72L853.89,337.87A10.77,10.77,0,0,1,852.43,332.48Zm-39.9,78.71L827,383.62a6.41,6.41,0,0,1,11.38.06l14.12,27.56a6.42,6.42,0,0,1-5.7,9.34H818.2A6.41,6.41,0,0,1,812.53,411.19Z"/><path class="cls-1" d="M897.41,315.73V337a7.12,7.12,0,0,0,7.12,7.12h47.92a7.12,7.12,0,0,1,7.12,7.12V467a7.12,7.12,0,0,0,7.12,7.12h25.67a7.12,7.12,0,0,0,7.12-7.12V351.28a7.12,7.12,0,0,1,7.12-7.12h47.92a7.12,7.12,0,0,0,7.12-7.12V315.73a7.12,7.12,0,0,0-7.12-7.12h-150A7.12,7.12,0,0,0,897.41,315.73Z"/><path class="cls-1" d="M1125.75,430.64V315.73a7.12,7.12,0,0,0-7.12-7.12H1093a7.13,7.13,0,0,0-7.13,7.12V467a7.12,7.12,0,0,0,7.13,7.12h125.83A7.11,7.11,0,0,0,1226,467v-22.1a7.12,7.12,0,0,0-7.12-7.12h-86A7.12,7.12,0,0,1,1125.75,430.64Z"/><path class="cls-1" d="M764.47,205.59h-8.82a2.94,2.94,0,0,1-2.93-3v-1.48a2.94,2.94,0,0,1,2.93-2.93h1.48a2.92,2.92,0,0,0,2.93-2.93l0-126.5a2.93,2.93,0,0,0-3-2.93h-8.83a2.94,2.94,0,0,0-2.94,2.93v8.84a3,3,0,0,1-3,3H741A2.93,2.93,0,0,1,738,77.66V76.18a3,3,0,0,0-3-3H517.91a2.93,2.93,0,0,0-2.93,3V85a2.94,2.94,0,0,0,2.93,2.93h8.83a2.94,2.94,0,0,1,2.94,2.93v1.48a3,3,0,0,1-2.94,3h-1.47a2.94,2.94,0,0,0-2.93,2.93V224.69a3,3,0,0,0,2.95,2.95h8.79a2.93,2.93,0,0,0,2.93-2.93v-8.83A3,3,0,0,1,540,213h1.47a2.92,2.92,0,0,1,3,2.93v1.45a3,3,0,0,0,3,2.95h72.57a2.93,2.93,0,0,0,2.93-2.93v-8.81a2.93,2.93,0,0,0-2.93-2.95h-8.84a2.94,2.94,0,0,1-2.93-3v-1.48a2.94,2.94,0,0,1,2.93-2.93h1.5a2.94,2.94,0,0,0,2.93-2.93l0-38.17a3,3,0,0,1,3-2.95h19.78a3,3,0,0,1,2.95,2.95v13.56a3,3,0,0,0,3,2.95H685a1.46,1.46,0,0,0,1.46-1.46v-2a1.46,1.46,0,0,0-1.46-1.46h-2a1.45,1.45,0,0,1-1.46-1.45v-2a1.45,1.45,0,0,0-1.45-1.46h-2a1.45,1.45,0,0,0-1.45,1.46v2.6a.88.88,0,0,1-.89.88H673a1.45,1.45,0,0,1-1.46-1.45l0-6.8a1.45,1.45,0,0,1,1.45-1.46h25.47a1.47,1.47,0,0,1,1.46,1.46v2a1.5,1.5,0,0,0,1.49,1.5h6.86a1.48,1.48,0,0,0,1.46-1.5v-2a1.48,1.48,0,0,0-1.48-1.48h-1.93a1.46,1.46,0,0,1-1.48-1.45v-2a1.48,1.48,0,0,1,1.48-1.47h2a1.46,1.46,0,0,0,1.46-1.46v-2a1.46,1.46,0,0,0-1.46-1.46h-6.86a1.47,1.47,0,0,0-1.49,1.46v2a1.47,1.47,0,0,1-1.46,1.46H673a1.46,1.46,0,0,1-1.46-1.46V145.8a1.45,1.45,0,0,1,1.46-1.45h2.05a1.46,1.46,0,0,1,1.46,1.45v2a1.45,1.45,0,0,0,1.45,1.45h2a1.45,1.45,0,0,0,1.45-1.45v-2a1.45,1.45,0,0,1,1.46-1.45h2a1.45,1.45,0,0,1,1.46,1.45v2a1.45,1.45,0,0,0,1.45,1.45h2a1.45,1.45,0,0,0,1.45-1.45v-2a1.46,1.46,0,0,1,1.46-1.45h2a1.46,1.46,0,0,0,1.46-1.46v-8.71a9.42,9.42,0,0,0-9.42-9.42H658.83a2.94,2.94,0,0,1-2.93-2.93v-1.47a3,3,0,0,0-2.95-3h-8.82a3,3,0,0,0-3,3v1.45a3,3,0,0,1-2.95,3H581.68a2.94,2.94,0,0,0-2.93,2.93v8.84a2.94,2.94,0,0,0,2.93,2.93h8.83a2.94,2.94,0,0,1,2.94,2.93v1.52a2.94,2.94,0,0,1-2.94,2.93H589a2.94,2.94,0,0,0-2.93,2.93V188a2.94,2.94,0,0,1-2.94,2.93H554.7a3,3,0,0,1-3-2.95V105.62a3,3,0,0,1,3-3H727.76a3,3,0,0,1,3,3V188a2.94,2.94,0,0,1-2.94,2.93H644.13a2.93,2.93,0,0,0-2.93,2.93v30.87a3,3,0,0,0,2.95,2.95H653a2.94,2.94,0,0,0,2.93-2.93v-8.83a2.94,2.94,0,0,1,2.93-2.93h1.47a2.94,2.94,0,0,1,2.94,2.93v1.47a2.93,2.93,0,0,0,2.93,2.93h98.28a3,3,0,0,0,2.95-2.95v-8.79A3,3,0,0,0,764.47,205.59ZM661.14,133.46a4.8,4.8,0,1,1,9.29,2.39,4.67,4.67,0,0,1-3.47,3.47A4.8,4.8,0,0,1,661.14,133.46Z"/></svg>