<svg id="Layer_1" data-name="Layer 1" xmlns="http://www.w3.org/2000/svg" viewBox="0 0 1110 700"><path d="M937.4,532.5H910.05a9.12,9.12,0,0,1-9.09-9.16v-4.58a9.12,9.12,0,0,1,9.09-9.09h4.58a9.08,9.08,0,0,0,9.1-9.1l.12-392.39a9.09,9.09,0,0,0-9.16-9.1h-27.4a9.13,9.13,0,0,0-9.1,9.1v27.4a9.18,9.18,0,0,1-9.15,9.16h-4.58a9.12,9.12,0,0,1-9.09-9.09v-4.58a9.14,9.14,0,0,0-9.16-9.16H172.54a9.08,9.08,0,0,0-9.09,9.16v27.34a9.12,9.12,0,0,0,9.09,9.09H200a9.12,9.12,0,0,1,9.09,9.1v4.58a9.12,9.12,0,0,1-9.09,9.15h-4.58a9.14,9.14,0,0,0-9.09,9.1V591.76a9.18,9.18,0,0,0,9.15,9.16h27.28a9.13,9.13,0,0,0,9.1-9.1v-27.4a9.14,9.14,0,0,1,9.09-9.1h4.58a9.08,9.08,0,0,1,9.15,9.1v4.51a9.18,9.18,0,0,0,9.16,9.16h225.1A9.13,9.13,0,0,0,498,569V541.65a9.09,9.09,0,0,0-9.1-9.15h-27.4a9.13,9.13,0,0,1-9.1-9.16v-4.58a9.12,9.12,0,0,1,9.1-9.09h4.63a9.12,9.12,0,0,0,9.1-9.09l.06-118.41a9.16,9.16,0,0,1,9.16-9.16h61.34a9.16,9.16,0,0,1,9.16,9.16v42.07a9.15,9.15,0,0,0,9.15,9.15h126.7a4.51,4.51,0,0,0,4.51-4.51v-6.07a4.51,4.51,0,0,0-4.51-4.51h-6.31a4.52,4.52,0,0,1-4.52-4.52v-6.31a4.52,4.52,0,0,0-4.51-4.52h-6.31a4.52,4.52,0,0,0-4.52,4.52v8.07a2.77,2.77,0,0,1-2.76,2.76h-8.12a4.51,4.51,0,0,1-4.51-4.53l0-21.09a4.51,4.51,0,0,1,4.51-4.51h79a4.53,4.53,0,0,1,4.52,4.51v6.13a4.63,4.63,0,0,0,4.64,4.64h21.28a4.57,4.57,0,0,0,4.52-4.64v-6.06a4.58,4.58,0,0,0-4.58-4.58h-6a4.55,4.55,0,0,1-4.58-4.52v-6.06a4.58,4.58,0,0,1,4.58-4.58h6.06a4.53,4.53,0,0,0,4.52-4.51v-6.13a4.53,4.53,0,0,0-4.52-4.51H742a4.57,4.57,0,0,0-4.64,4.51v6.13a4.53,4.53,0,0,1-4.52,4.51H653.73a4.51,4.51,0,0,1-4.51-4.51V347a4.52,4.52,0,0,1,4.51-4.52h6.37a4.52,4.52,0,0,1,4.52,4.52v6.31a4.52,4.52,0,0,0,4.52,4.52h6.31a4.52,4.52,0,0,0,4.51-4.52V347a4.52,4.52,0,0,1,4.52-4.52h6.31A4.52,4.52,0,0,1,695.3,347v6.31a4.53,4.53,0,0,0,4.52,4.52h6.31a4.53,4.53,0,0,0,4.52-4.52V347a4.52,4.52,0,0,1,4.51-4.52h6.31A4.51,4.51,0,0,0,726,338V311a29.22,29.22,0,0,0-29.22-29.22H609.69a9.13,9.13,0,0,1-9.1-9.1v-4.58a9.18,9.18,0,0,0-9.15-9.15H564.09a9.18,9.18,0,0,0-9.15,9.15v4.52a9.16,9.16,0,0,1-9.16,9.16H370.36a9.12,9.12,0,0,0-9.09,9.09v27.4a9.12,9.12,0,0,0,9.09,9.1h27.41a9.12,9.12,0,0,1,9.09,9.09v4.7a9.12,9.12,0,0,1-9.09,9.1h-4.64a9.12,9.12,0,0,0-9.1,9.09V477.81a9.09,9.09,0,0,1-9.09,9.09H286.68a9.18,9.18,0,0,1-9.16-9.15V222.38a9.18,9.18,0,0,1,9.16-9.16H823.51a9.18,9.18,0,0,1,9.15,9.16V477.81a9.12,9.12,0,0,1-9.09,9.09H564.1A9.1,9.1,0,0,0,555,496v95.76a9.18,9.18,0,0,0,9.16,9.16h27.4a9.13,9.13,0,0,0,9.1-9.1v-27.4a9.12,9.12,0,0,1,9.09-9.1h4.58a9.12,9.12,0,0,1,9.09,9.1V569a9.12,9.12,0,0,0,9.09,9.1H937.4a9.16,9.16,0,0,0,9.15-9.16V541.65A9.15,9.15,0,0,0,937.4,532.5ZM616.86,308.74a14.88,14.88,0,1,1,28.83,7.42,14.58,14.58,0,0,1-10.76,10.77A14.89,14.89,0,0,1,616.86,308.74Z"/></svg>